<svg xmlns="http://www.w3.org/2000/svg" xmlns:lucid="lucid" viewBox="410 300 80 80"><path d="M459.86 321.86c-4.53 0-8.26 3.74-8.26 8.28 0 4.53 3.73 8.26 8.26 8.26 4.54 0 8.28-3.73 8.28-8.26 0-4.54-3.74-8.28-8.28-8.28zm-19.72 0c-4.54 0-8.28 3.74-8.28 8.28 0 4.53 3.74 8.26 8.28 8.26 4.53 0 8.26-3.73 8.26-8.26 0-4.54-3.73-8.28-8.26-8.28zm0 19.74c-4.54 0-8.28 3.73-8.28 8.26 0 4.54 3.74 8.28 8.28 8.28 4.53 0 8.26-3.74 8.26-8.28 0-4.53-3.73-8.26-8.26-8.26zm19.72 0c-4.53 0-8.26 3.73-8.26 8.26 0 4.54 3.73 8.28 8.26 8.28 4.54 0 8.28-3.74 8.28-8.28 0-4.53-3.74-8.26-8.28-8.26zM450 310.66c16.26 0 29.34 13.08 29.34 29.34 0 16.26-13.08 29.34-29.34 29.34-16.26 0-29.34-13.08-29.34-29.34 0-16.26 13.08-29.34 29.34-29.34zm0-10.66c-22.14 0-40 17.86-40 40s17.86 40 40 40 40-17.86 40-40-17.86-40-40-40z" fill="#f22f46" lucid:page-tab-id="0_0"/></svg>